<?xml version="1.0" encoding="UTF-8"?>
<svg version="1.1" viewBox="0 0 1600 1600" width="1280" height="1280" xmlns="http://www.w3.org/2000/svg">
<path transform="translate(0)" d="m0 0h1600v1600h-1600v-1600z" fill="#f6ebda"/>
<path transform="translate(1071,669)" d="m0 0c2.52 3.83 2.13 6.88 1.57 11.3-0.993 4.75-3.01 8.89-5.13 13.2-0.723 1.53-0.723 1.53-1.46 3.09-1.35 2.86-2.72 5.71-4.09 8.56-2.91 6.06-5.77 12.1-8.64 18.2-0.337 0.713-0.674 1.43-1.02 2.16-11.2 23.8-22.1 47.8-31.2 72.5-0.292 0.776-0.584 1.55-0.885 2.35-6.15 16.5-13.9 40.2-8.12 57.6 3.56 1.78 7.16 1.59 11 1 11.8-4.67 22.7-14.1 27.8-25.8 1.01-2.62 1.94-5.27 2.86-7.93 4.06-11.5 10.5-22 18.4-31.3 0.735-0.915 0.735-0.915 1.48-1.85 10.4-12.8 26.4-24.6 43.1-26.4 5.83-0.304 10 0.245 14.8 3.75 4.2 4.05 4.76 8.28 4.97 13.8-0.435 12.7-6.31 22.4-15.5 31-15 12.8-32.6 19-51.9 21.6-1.03 9.1-1.54 15.9 2.62 24.2 4.04 4.68 7.59 6.44 13.8 7.13 15.1 0.467 26.1-4.09 37.6-13.4 1.69-1.64 3.36-3.3 5-5 0.763-0.743 1.53-1.48 2.31-2.25 0.887-0.908 1.77-1.82 2.69-2.75 0.598-0.602 1.2-1.2 1.81-1.82 12.7-13.5 20-32.3 26.7-49.3 0.351-0.877 0.701-1.75 1.06-2.66 1.9-4.97 2.94-8.89 2.44-14.2-0.33-0.66-0.66-1.32-1-2-0.199-6.73 1.72-12.8 6-18 2.36-1.54 4.26-2.2 7-3 2.48 3.72 2.44 6.69 2 11-0.412 1.22-0.825 2.43-1.25 3.69-0.371 1.64-0.371 1.64-0.75 3.31 2.7 4.17 6.26 6.84 10.2 9.69 7.62 5.66 14.2 11.9 16.8 21.3 1.32 12.2-2.28 22.6-7.06 33.6-4.49 9.84-4.49 9.84-5.94 20.4 0.953 2.95 0.953 2.95 4 4 7.39 1.12 13.7 0.0668 20-4 12.5-9.22 12.5-9.22 19.8-22.4 2.52-7.46 7.37-11 14.1-14.8 11.5-6.94 24.4-25.9 28.1-38.8 0.555-3.29 1-6.59 1.45-9.9 0.785-4.39 2.15-7.35 4.55-11.1 2.62-1.63 3.57-2.05 6.69-1.69 2.31 0.688 2.31 0.688 3.31 1.69-0.121 2.11-0.243 4.22-0.37 6.34-0.717 15.4 3.67 28.6 8.28 43.1 2.82 9.34 5.1 18.9 5.14 28.7 0.00447 1.1 0.00447 1.1 0.00903 2.21-0.00177 3.25-0.0282 6.5-0.0637 9.74 7.25 0.488 11.4-2.67 17-7 5.94-5.65 10.7-12 15-19 0.66 0.33 1.32 0.66 2 1-0.481 9.38-8.47 17.8-15 24-4.92 3.67-9.91 5.28-15.8 6.81-4.34 1.13-4.34 1.13-7.62 3.93-0.59 1.35-1.14 2.72-1.65 4.1-2.74 6.46-8.59 10.4-14.8 13.2-9.89 3.41-22.9 3.9-32.9 0.227-8.4-4.6-13.9-11.3-17.2-20.2-0.359-1.33-0.702-2.66-1-4-3.93 0.554-5.72 2.39-8.5 5.12-10.9 10.1-21.9 14.6-36.7 14.2-6.3-0.52-9.91-2.24-14.3-6.94-3.64-5.53-3.24-10.9-2.56-17.4 1.43-5.85 3.75-11.4 6-17 0.567-1.43 1.13-2.85 1.7-4.28 1.02-2.56 2.05-5.1 3.1-7.65 2.8-7.18 3.06-14.5 2.2-22.1-2.18-4.83-5.62-8.09-10-11-1.33-0.364-2.66-0.703-4-1-0.175 0.555-0.35 1.11-0.53 1.68-1.72 5.33-3.72 10.4-6.05 15.5-0.337 0.74-0.673 1.48-1.02 2.24-0.708 1.55-1.42 3.11-2.13 4.66-1.07 2.34-2.14 4.69-3.2 7.04-5.48 12-11.4 22.8-20.1 32.9-0.825 0.984-1.65 1.97-2.5 2.98-9.28 10.8-19.9 18.4-33.5 23-0.71 0.245-1.42 0.49-2.15 0.742-5.06 1.42-10.2 1.46-15.4 1.51-1.06 0.0141-1.06 0.0141-2.15 0.0286-7.91-0.0486-14.7-1.86-21.3-6.28-1.03-0.681-2.06-1.36-3.12-2.06-4.21-3.6-5.82-8.94-7.88-13.9-0.653-1.34-1.31-2.68-2-4-0.727 0.636-0.727 0.636-1.47 1.29-1.42 1.24-2.83 2.48-4.25 3.71-1.45 1.27-2.89 2.55-4.31 3.85-9.86 8.9-18.6 13-32.1 12.6-4.58-0.518-7.14-1.46-10.5-4.62-7.49-9.57-4.71-23.5-3.42-34.8-3.73 3.57-6.89 7.37-10 11.5-8.67 11.2-19.1 23.9-33 28.5-8.33 0.789-15.4 1.15-22.3-4.28-5.39-5.35-6.82-10.4-7.3-17.9-0.0838-1.27-0.168-2.54-0.254-3.86-0.0606-0.976-0.121-1.95-0.184-2.96-0.788 0.289-1.58 0.578-2.39 0.875-8.97 3.06-17.4 4.46-26.8 2.45-2.77-0.58-2.77-0.58-4.75 0.645-0.526 0.505-1.05 1.01-1.59 1.53-0.884 0.837-0.884 0.837-1.79 1.69-1.62 1.7-3.15 3.45-4.65 5.25-7.92 9.44-18.1 16.7-30.7 17.8-8.19 0.225-13.2-1.26-19.2-6.86-4.96-6.67-6.14-15.3-5.19-23.4 2.86-16.7 9.52-32.9 23.1-43.7 3.52-2.46 5.86-3.43 10.2-2.94 0.887 0.206 1.77 0.413 2.69 0.625-0.609 4.61-2.55 8.32-4.69 12.4-7.25 14.2-15.4 30.2-11.6 46.6 1.83 2.88 3.11 3.83 6.31 5.06 7.35 0.614 12.5-2.43 18-7 7.44-6.48 7.44-6.48 12-15h-2c-10.4-12.9-13.7-25.8-13-42 1.14-9.74 6.18-18.3 13.7-24.4 6.57-4.72 13.2-5.09 21.1-4.19 4.43 2.17 6.71 5.36 9.19 9.56 4.68 14 0.175 30.1-5.92 42.9-1.89 3.77-3.97 7.41-6.08 11.1-1.01 1.99-2.02 3.99-3 6 6.49 2.16 15 2.04 21.5-0.188 7.61-3.94 10.6-8.22 14.2-15.8 6.91-13.7 15.5-25.2 26.2-36.1 1.2-1.22 1.2-1.22 2.43-2.46 11.1-10.7 24.5-17.9 40.1-17.8 2.62 0.323 4.23 0.869 6.45 2.3 2.29 3.44 2.18 4.99 2 9-0.701-0.168-1.4-0.335-2.12-0.508-10.6-2.28-17.6-0.0557-26.9 5.51-1.97 1.54-3.81 3.14-5.62 4.86-1.38 1.14-1.38 1.14-3.38 1.14-0.266 0.579-0.531 1.16-0.805 1.75-1.24 2.33-2.64 4.15-4.32 6.18-11.2 14.3-22.8 34.1-22.2 52.9 0.404 2.98 1.36 4.87 3.29 7.16 4.08 2.72 7.21 2.74 12 2 22-8.78 37.8-38.6 46.9-59.1 1.93-4.55 3.73-9.15 5.52-13.8 1.69-4.36 3.42-8.71 5.14-13.1 0.533-1.35 0.533-1.35 1.08-2.73 4.05-10.2 8.27-20.4 12.5-30.6 0.358-0.86 0.715-1.72 1.08-2.61 1.66-4 3.33-7.99 5-12 1.07-2.57 2.13-5.13 3.19-7.7 2.31-5.61 4.72-11.1 7.48-16.5 0.342-0.675 0.684-1.35 1.04-2.04 1-1.97 2.01-3.93 3.03-5.89 0.54-1.05 1.08-2.1 1.64-3.18 12.2-23.1 12.2-23.1 22.4-19.8z" fill="#1F1F1F"/>
<path transform="translate(597 702)" d="m0 0c2.06 1.83 2.9 2.84 3.69 5.5-0.421 5.26-1.77 9.14-4.19 13.8-0.312 0.607-0.625 1.21-0.947 1.84-2.32 4.45-4.85 8.74-7.48 13-1.35 2.28-2.54 4.58-3.7 6.96-2.2 4.52-4.64 8.88-7.12 13.2-7.02 10.6-7.02 10.6-10.6 22.1 0.559-0.00444 1.12-0.00888 1.69-0.0135 5.81-0.0442 11.6-0.0744 17.4-0.0964 2.17-0.0101 4.34-0.0237 6.51-0.041 3.11-0.0242 6.23-0.0356 9.34-0.0444 0.974-0.0103 1.95-0.0206 2.95-0.0313 0.901-1.51e-4 1.8-3.02e-4 2.73-4.58e-4 0.795-0.00444 1.59-0.00888 2.41-0.0135 1.95 0.241 1.95 0.241 3.95 2.24-0.33 0.99-0.66 1.98-1 3-3.85 0.32-7.71 0.63-11.6 0.938-1.75 0.14-1.75 0.14-3.53 0.283-5.88 0.455-11.8 0.841-17.7 1.03-1.57 0.0504-1.57 0.0504-3.17 0.102-1.99 0.0563-3.98 0.1-5.97 0.13-0.896 0.0252-1.79 0.0504-2.71 0.0764-1.17 0.0202-1.17 0.0202-2.37 0.0408-2.57 0.504-3.43 1.38-5.04 3.4-9.11 19.4-18.1 46.7-12.8 68 1.56 3.8 4.19 6.15 7.8 7.96 13.7 1.12 22.2-1.39 32.9-10.2 0.686-0.59 1.37-1.18 2.08-1.79 0.583-0.487 1.17-0.975 1.77-1.48 5.84-5.32 9.84-12.1 14.1-18.7 1.57-2.43 3.17-4.82 4.78-7.22 0.7-1.05 0.7-1.05 1.41-2.12 0.317-0.476 0.634-0.951 0.961-1.44 0.99 0.66 1.98 1.32 3 2-6.13 20.4-23.5 38.8-41.9 48.8-9.53 4.6-20.6 5.63-30.9 3.06-5.68-2.05-9.91-5.44-12.6-10.9-2.22-5.75-2.91-11.8-3.62-17.9l-2 2c-0.464 0.459-0.928 0.918-1.41 1.39-1.1 1.12-2.19 2.25-3.25 3.41-9.77 10.4-20.8 18.3-35.3 18.8-6.05-0.0104-10.6-0.853-15.4-4.72-4.25-4.6-6.08-9.63-6.7-15.8h-3c-0.265 0.588-0.53 1.18-0.802 1.78-2.06 3.82-5.22 6.61-8.26 9.66-0.631 0.655-1.26 1.31-1.91 1.99-7.2 7.24-14.5 11.6-24.8 11.9-5.9-0.079-10.4-1.7-14.7-5.74-5.5-6.2-6.08-12.4-5.82-20.4 1.24-18.8 12.1-36.4 24.4-50.2 0.621-0.752 1.24-1.5 1.88-2.28 10.7-12.7 26.4-24.6 43.1-27.7 8.16-0.674 16-0.643 23 4 4.76 4.82 8.09 9.4 8.31 16.3-0.083 4.62-0.906 7.37-4.31 10.7-2.85 0.506-5.08 0.292-8 0-0.985-3.32-1.13-6.42-1.25-9.88-0.309-3.78-0.554-6.71-2.81-9.81-3.65-2.87-6.39-3.75-10.9-3.31-15.7 3.45-27 15.5-35.5 28.5-9.19 14.5-18.9 31.8-18.5 49.5 0.646 3.46 0.646 3.46 2 6 3.72 1.86 7.94 1.43 12 1 2.68-0.931 4.75-2.29 7-4 0.55-0.401 1.1-0.802 1.67-1.21 4.67-3.68 8.25-8.16 11.9-12.8 2.43-3.04 4.94-6.02 7.45-8.99 4.58-5.49 8.8-11.2 12.9-17 1.46-2.02 2.91-4.04 4.38-6.06 0.647-0.898 1.29-1.8 1.96-2.72 1.66-2.21 1.66-2.21 3.66-4.21 3.54 0.0956 5.04 1.03 7.88 3.19 2.12 2.81 2.12 2.81 2.09 5.38-1.62 5.74-4.84 10.6-7.84 15.7-4.57 7.99-7.86 15.5-6.74 24.8 0.761 2.36 1.69 3.38 3.62 4.91 5.94 1.66 10.6 0.855 16-2 3.57-2.77 6.79-5.82 10-9 1.3-1.21 1.3-1.21 2.62-2.44 12.1-13 16.7-25.7 21.6-42.5 1.11-3.82 2.28-7.59 3.61-11.3 1.02-3.21 1.51-5.43 1.19-8.75-2.64-1.32-5.28-2.64-8-4l2-4c3.63 0.33 7.26 0.66 11 1 0.383-1.23 0.766-2.46 1.16-3.73 7.23-21.6 18.8-44.2 32.8-62.3 0.498-0.66 0.995-1.32 1.51-2 3.29-4.14 8.01-9.75 13.8-8.5z" fill="#1F1F1F"/>
<path transform="translate(402 673)" d="m0 0c6.35 6.73 7.45 13.9 7.33 22.8-1.09 18.1-8.4 38.8-22.2 51.3-3.14 2.24-4.4 2.81-8.17 2.67-0.828-0.0103-1.66-0.0206-2.51-0.0312-2.78-0.551-4.24-1.63-6.37-3.47 0.404-5.28 3.32-8.34 6.5-12.3 10.3-13.3 22.7-31 20.5-48.7-1.73-3.66-3.04-5.42-6.5-7.5-11.8-1.69-22.9 3.82-32.1 10.7-3.72 3-7.08 6.31-10.4 9.78-0.496 0.523-0.992 1.05-1.5 1.59-19.1 20.5-31.9 46.3-41.5 72.4-0.372 0.996-0.372 0.996-0.752 2.01-9.57 25.8-14.6 56.9-4.04 83 4.26 9.13 9.9 14.9 19.1 19.1 9.71 3.44 25.2 2.42 34.5-1.85 0.724-0.393 1.45-0.786 2.2-1.19 0.745-0.362 1.49-0.724 2.26-1.1 20.4-10.5 35.4-27.8 46.3-47.6 1.41-2.3 1.41-2.3 3.41-3.3 0.99 3.47 0.99 3.47 2 7-0.413 0.364-0.825 0.727-1.25 1.1-2.32 2.52-3.98 5.37-5.75 8.27-4.68 7.49-10.2 14-16 20.6-0.826 1.02-1.65 2.04-2.5 3.1-3.98 4.62-8.69 8.18-13.5 11.9-0.795 0.634-1.59 1.27-2.41 1.92-14.4 10.9-31.9 14.5-49.6 13.1-13.7-2.02-25.1-7.52-33.8-18.5-14.6-20.1-15.8-46.3-12.1-70.2 6.08-34.9 23.4-70.5 47.9-96.3 0.44-0.471 0.88-0.942 1.33-1.43 18.2-19.3 52.3-45.4 79.5-28.8z" fill="#1F1F1F"/>
<path transform="translate(813,671)" d="m0 0c2.54 2.04 4.32 4.22 6 7 0.538 0.88 1.08 1.76 1.63 2.67 1.75 4.25 1.87 7.79 1.81 12.3-0.00685 0.838-0.0137 1.68-0.0208 2.54-0.196 7.67-1.72 14.2-4.42 21.5-0.374 1.04-0.748 2.07-1.13 3.14-4.1 10.6-10.2 22.3-19.8 28.9-3.83 1.25-6.18 1.01-10.1 0-2.44-1.56-2.44-1.56-4-3 0.509-4.46 2.05-6.61 5-9.94 7.67-9.07 14.2-19.2 19-30.1 0.318-0.723 0.637-1.45 0.965-2.19 2.35-6.06 2.95-12.4 2.04-18.8-1.6-3.23-2.68-4.77-5.62-6.88-7.44-2.48-14.2 0.0889-21.1 3.18-34.2 17.9-55.2 60-66.5 95.4-8.57 27.6-14.9 58.3-0.719 85.3 1.33 1.67 2.66 3.34 4 5v2c0.804 0.371 0.804 0.371 1.62 0.75 2.38 1.25 2.38 1.25 5.31 3.25 9.31 6.08 22.5 5.59 33.2 3.6 3.85-1.06 7.32-2.73 10.8-4.6 0.901-0.411 1.8-0.822 2.73-1.25 17.7-8.61 30.8-24.8 41.2-41 1.67-2.6 3.39-5.16 5.11-7.72 0.99 0.66 1.98 1.32 3 2-1.97 4.89-4.24 9.33-7.12 13.8-0.589 0.907-0.589 0.907-1.19 1.83-3.84 5.81-8.12 11.2-12.7 16.4-0.824 0.958-1.65 1.92-2.5 2.9-4.57 5.21-4.57 5.21-6.5 7.1h-2c-0.33 0.99-0.66 1.98-1 3-14.6 13.3-33.3 19.8-52.9 19.2-14.8-1.06-27.1-5.58-37.4-16.7-15.4-19.8-16.6-45.3-13.7-69.2 2.69-19.2 9.39-37 17.9-54.3 0.336-0.685 0.673-1.37 1.02-2.08 15.1-30.3 40-63 73-74.6 11.6-3.64 23.5-5.41 35-0.281z" fill="#1F1F1F"/>
<path transform="translate(1121,775)" d="m0 0c2.33 3.5 2.33 5.11 2.38 9.25 0.0284 1.1 0.0567 2.2 0.0859 3.33-1.5 11.1-12.8 20.6-21.2 27.2-9.12 6.51-19 12.7-30.2 14.2 0.459-6.22 1.88-10.7 4.88-16.1 0.395-0.731 0.79-1.46 1.2-2.22 4.2-7.53 9.3-14.1 14.9-20.7 0.628-0.73 1.26-1.46 1.9-2.21 4.34-4.68 9.51-7.77 15.1-10.8 0.684-0.379 1.37-0.758 2.07-1.15 3.04-1.34 5.66-1.15 8.93-0.852z" fill="#f6ebda"/>
<path transform="translate(1278,793)" d="m0 0c3.76 2.51 3.67 3.64 4.57 7.97 0.257 1.21 0.513 2.42 0.777 3.67 0.257 1.27 0.513 2.55 0.777 3.86 0.264 1.24 0.529 2.49 0.801 3.77 1.92 9.22 3.22 18.2 3.2 27.6 0.00387 1.6 0.00387 1.6 0.00781 3.24-0.114 2.47-0.415 4.53-1.13 6.88-10.3-0.674-20.2-6.62-27-14.2-5.53-6.86-5.53-6.86-5.98-10.8 2.08-3.89 4.78-6.88 7.75-10.1 3.99-4.39 7.2-9.09 10.4-14.1 1.82-2.73 3.77-5.27 5.86-7.8z" fill="#f6ebda"/>
<path transform="translate(895,777)" d="m0 0c4.14 4.97 4.68 8.74 4.56 14.9-0.011 0.837-0.0219 1.67-0.0332 2.54-0.471 13.8-6.41 25.1-13.5 36.5-3.19-0.592-3.86-0.832-6.06-3.44-5.99-10.1-6.56-22.5-4.28-33.8 2.34-7.23 6.38-13.4 13-17.3 2.7-0.51 3.86-0.706 6.31 0.562z" fill="#f6ebda"/>
<path transform="translate(1251,833)" d="m0 0c0.639 0.66 1.28 1.32 1.94 2 1.02 1 2.04 2 3.06 3 0.643 0.628 1.29 1.26 1.95 1.9 7.43 6.95 15.7 11.2 25.1 15.1 1 1 1 1 1.26 3.32-0.315 3.27-1.03 4.23-3.38 6.49-4.86 3.94-9.36 4.13-15.5 3.8-6.73-1.22-11.2-4.75-15.4-10.1-3.73-5.87-4.6-11.8-4.06-18.6 2.25-5.62 2.25-5.62 5-7z" fill="#f6ebda"/>
</svg>
